<svg width="24" height="24" viewBox="0 0 24 24" fill="none" xmlns="http://www.w3.org/2000/svg">
<path d="M6 3H18V21H6V3Z" fill="white"/>
<path d="M6 3V2.5C5.72386 2.5 5.5 2.72386 5.5 3H6ZM18 3H18.5C18.5 2.72386 18.2761 2.5 18 2.5V3ZM18 21V21.5C18.2761 21.5 18.5 21.2761 18.5 21H18ZM6 21H5.5C5.5 21.2761 5.72386 21.5 6 21.5V21ZM6 3.5H18V2.5H6V3.5ZM17.5 3V21H18.5V3H17.5ZM18 20.5H6V21.5H18V20.5ZM6.5 21V3H5.5V21H6.5Z" fill="#404553"/>
<path d="M16 16C16 18.2091 14.2091 20 12 20C9.79086 20 8 18.2091 8 16C8 13.7909 9.79086 12 12 12C14.2091 12 16 13.7909 16 16Z" fill="#FEEE00"/>
<path d="M12.9109 13.1505C12.6586 13.0502 12.3861 13 12.1136 13C11.9521 13 11.7906 13.0201 11.6291 13.0502L10.9782 14.1639C11.2456 14.0184 11.5434 13.9482 11.8512 13.9532C12.0379 13.9532 12.2196 13.9783 12.3962 14.0284L12.9109 13.1505Z" fill="#404553"/>
<path d="M9 16.1455C9 17.7508 10.3726 19 11.9722 19C13.6476 19 15 17.6555 15 16.0201C15 15.0619 14.5357 14.2191 13.8444 13.6572L13.3398 14.5251C13.7839 14.9013 14.0412 15.4532 14.0412 16.0351C14.0412 17.1488 13.1127 18.0619 11.9722 18.0619C10.8318 18.0619 9.90833 17.1438 9.90833 16.01C9.90833 16.01 9.90833 16.01 9.90833 16.005C9.90833 15.8696 9.91842 15.7341 9.94365 15.6037L9 16.1455Z" fill="#404553"/>
<path d="M9 5.5H15.125" stroke="#404553" stroke-linecap="round"/>
<path d="M9 8H15.125" stroke="#404553" stroke-linecap="round"/>
<path d="M9 10.1226L9 10.9976" stroke="#404553" stroke-linecap="round"/>
<path d="M7.5 21L7.5 21.875" stroke="#404553" stroke-linecap="round"/>
<path d="M16.5 21L16.5 21.875" stroke="#404553" stroke-linecap="round"/>
</svg>
