<svg width="273" height="220" viewBox="0 0 273 220" fill="none" xmlns="http://www.w3.org/2000/svg">
<path d="M241.66 62.7593C229.89 39.2204 202.195 -3.55472 130.422 1.29944C58.6485 6.1536 23.6264 58.7833 13.9942 112.044C7.74169 146.617 40.442 183.368 86.4164 190.724C132.391 198.079 194.899 177.433 232.063 141.439C248.238 125.774 253.429 86.2982 241.66 62.7593Z" fill="#E5EAF6"/>
<mask id="mask0" mask-type="alpha" maskUnits="userSpaceOnUse" x="13" y="4" width="236" height="189">
<path d="M241.66 62.7593C229.89 39.2204 198.096 0.36565 126.102 5.23481C54.1079 10.104 23.6264 58.7833 13.9942 112.044C7.74169 146.617 40.442 183.368 86.4164 190.724C132.391 198.079 194.899 177.433 232.063 141.439C248.238 125.774 253.429 86.2982 241.66 62.7593Z" fill="#E5EAF6"/>
</mask>
<g mask="url(#mask0)">
<path d="M98.3365 22.2933H129.95C129.95 22.2933 130.089 17.2907 126.685 17.2907C124.809 17.2907 123.35 18.3329 123.35 18.3329C123.35 18.3329 122.377 14.9283 118.764 14.3725C115.151 13.8166 114.178 15.2757 114.178 15.2757C114.178 15.2757 111.607 8.95296 106.605 9.30037C99.2397 9.78674 99.1703 17.5686 99.1703 17.5686C99.1703 17.5686 95.4183 18.1245 96.0436 22.3628H98.3365V22.2933Z" stroke="#CED9ED" stroke-width="0.964827" stroke-miterlimit="10"/>
<path d="M144.78 16.8133C146.557 15.9938 147.581 14.4255 147.067 13.3104C146.553 12.1952 144.695 11.9555 142.918 12.775C141.141 13.5944 140.117 15.1627 140.631 16.2779C141.145 17.393 143.003 17.6327 144.78 16.8133Z" stroke="#CED9ED" stroke-width="0.964827" stroke-miterlimit="10"/>
<path d="M8.28087 0.816176C-9.74225 -3.45423 -19.4469 16.8302 -22.0463 27.5061C-24.9346 46.0114 -26.8987 89.2139 -11.6485 113.982C7.41426 144.943 46.4066 180.174 82.7995 186.579C119.192 192.985 185.044 197.255 219.704 180.174C254.363 163.092 254.364 112.915 254.364 70.2105C254.364 36.0472 246.854 21.1007 243.1 17.8979C235.59 27.8622 215.892 47.7908 197.176 47.7908C173.781 47.7908 123.523 94.7654 116.592 63.8049C109.66 32.8443 99.2628 27.5061 82.7995 27.5061C66.3362 27.5061 62.8698 48.8584 46.4066 47.7908C29.9433 46.7232 30.8098 6.15419 8.28087 0.816176Z" fill="#CED9ED"/>
</g>
<path d="M236.31 127.665C256.107 127.665 272.155 111.617 272.155 91.8199C272.155 72.0233 256.107 55.975 236.31 55.975C216.513 55.975 200.465 72.0233 200.465 91.8199C200.465 111.617 216.513 127.665 236.31 127.665Z" fill="#2F3D48"/>
<path d="M235.229 124.498C255.025 124.498 271.074 108.45 271.074 88.6532C271.074 68.8566 255.025 52.8083 235.229 52.8083C215.432 52.8083 199.384 68.8566 199.384 88.6532C199.384 108.45 215.432 124.498 235.229 124.498Z" fill="#FF9165"/>
<path d="M240.251 65.1675L252.766 68.0258L235.462 99.7764L227.968 96.9953L240.251 65.1675Z" fill="white"/>
<path d="M227.427 112.446C229.901 112.446 231.907 110.44 231.907 107.966C231.907 105.491 229.901 103.485 227.427 103.485C224.952 103.485 222.946 105.491 222.946 107.966C222.946 110.44 224.952 112.446 227.427 112.446Z" fill="white"/>
<path d="M82.4549 54.7834C75.1664 54.7834 68.0209 58.4991 63.8765 64.5013C59.8035 63.501 56.4451 62.715 52.3007 62.7864C53.2296 65.0015 54.1585 67.2881 55.7305 69.146C57.3026 71.0038 59.5891 72.4329 61.9472 72.29C59.9464 75.9342 61.9472 81.079 65.0912 83.7943C68.2353 86.5096 72.5226 87.4386 76.667 87.4386C81.0972 87.4386 85.5989 86.4382 89.3146 83.9372C92.9589 81.4363 95.7456 77.3633 95.96 73.0045C96.1744 68.6458 93.7449 63.9297 89.6004 62.2862C91.3868 57.9274 90.3865 52.9256 88.6001 48.5668C85.9562 49.7815 82.7407 51.7823 82.4549 54.7834Z" fill="#EEF4FF"/>
<path d="M67.736 74.4344C66.95 74.9346 67.0929 76.5067 68.0219 78.0073C68.9508 79.5079 70.3086 80.3655 71.0946 79.9367C71.8807 79.5079 71.7377 77.8644 70.8088 76.3638C69.8798 74.7917 68.5221 73.9342 67.736 74.4344Z" fill="#2F3D48"/>
<path d="M71.8098 75.0776C71.8812 75.5778 72.3815 75.7922 72.8817 75.9351C73.1675 76.0066 73.7392 76.0066 73.9535 76.1495C73.9535 76.1495 73.9535 76.1495 74.025 76.1495C74.6681 75.5778 75.3827 74.9347 75.74 74.0772C75.8115 73.8628 75.8829 73.577 75.8115 73.3626C75.74 73.1482 75.5971 72.7909 75.3827 72.9339C74.4538 72.7909 73.5248 73.2197 72.6673 73.7199C72.4529 73.8628 72.2385 74.0057 72.0242 74.2201C71.8812 74.5774 71.8098 74.8632 71.8098 75.0776Z" fill="#2F3D48"/>
<path d="M78.3119 68.0744C77.5259 68.5032 77.6688 70.1467 78.5978 71.6474C79.5267 73.148 80.8844 74.0055 81.6705 73.5768C82.4565 73.0766 82.3136 71.5045 81.3847 70.0038C80.4557 68.4317 79.098 67.5742 78.3119 68.0744Z" fill="#2F3D48"/>
<path d="M73.8089 75.8632C74.3806 76.7207 74.9522 77.5782 75.7383 78.2928C76.5243 78.9359 77.5248 79.4361 78.5252 79.3646C79.5256 79.2932 80.526 78.4357 80.5975 77.4353" stroke="#2F3D48" stroke-width="0.357277" stroke-miterlimit="10"/>
<path d="M73.81 75.8636C74.3102 76.7926 74.8104 77.6501 75.0963 78.6505C75.3106 79.6509 75.3106 80.7943 74.739 81.6518C74.1673 82.5093 73.024 83.0095 72.095 82.5807" stroke="#2F3D48" stroke-width="0.357277" stroke-miterlimit="10"/>
<path d="M97.0301 27.416L188.85 30.3457C188.85 30.3457 183.134 41.7071 182.062 47.8523C180.99 53.9974 168.2 90.0824 169.7 93.7267C171.129 97.3709 171.558 105.374 168.986 108.661C166.413 111.948 164.27 120.594 164.27 120.594L147.12 176.472C147.12 176.472 146.049 178.973 142.047 178.83C141.261 178.83 140.547 178.544 139.903 178.116C137.402 176.329 136.259 171.399 136.545 165.539C136.831 159.466 138.689 153.535 135.259 152.177L134.973 152.106L66.1614 125.453C76.8082 102.444 84.6683 87.3671 91.5281 57.2844C92.8857 50.9963 95.9583 33.3468 97.0301 27.416Z" fill="#FFDC50"/>
<path d="M139.906 178.044L120.184 171.47C120.47 169.97 120.827 168.612 121.256 167.254C124.186 158.537 125.615 152.677 132.546 151.82C133.547 151.677 134.404 151.749 135.047 151.963L135.333 152.034C138.691 153.392 136.905 159.394 136.619 165.397C136.262 171.327 137.334 176.258 139.906 178.044Z" fill="#FFC74F"/>
<path d="M66.1627 125.381L134.974 152.034C134.331 151.82 133.474 151.82 132.473 151.891C125.542 152.749 124.113 158.608 121.183 167.326C120.755 168.683 120.397 170.041 120.112 171.542C118.54 179.83 118.611 190.12 111.037 199.409C102.176 210.342 88.2425 216.201 88.2425 216.201L17.7874 183.975C38.8667 178.115 44.9405 128.74 52.9435 125.81C60.9465 122.88 66.1627 125.381 66.1627 125.381Z" fill="#FEE889"/>
<path d="M124.899 40.8496C122.541 46.6375 120.898 52.2825 119.612 58.7849C112.18 58.7135 104.82 58.642 97.389 58.4991C99.89 58.4991 100.819 40.7782 103.677 40.0636C108.75 38.8489 120.112 40.7067 124.899 40.8496Z" stroke="#FFF3C0" stroke-width="0.714555" stroke-miterlimit="10"/>
<path d="M174.276 44.3508C171.061 49.9244 169.06 56.7841 166.773 62.8578C153.697 61.7145 138.406 62.2862 125.544 59.7852C125.544 54.9263 128.831 47.7807 131.689 41.7784C143.55 44.2794 162.2 42.9932 174.276 44.3508Z" stroke="#FFF3C0" stroke-width="0.714555" stroke-miterlimit="10"/>
<path d="M117.326 66.9308C114.968 72.7187 113.325 78.3637 112.039 84.8662C104.607 84.7947 97.2472 84.7232 89.8159 84.5803C92.3168 84.5803 93.2457 66.8594 96.104 66.1448C101.177 64.9301 112.539 66.7879 117.326 66.9308Z" stroke="#FFEDA1" stroke-width="0.714555" stroke-miterlimit="10"/>
<path d="M166.699 70.4321C163.484 76.0056 161.483 82.8653 159.197 88.939C146.12 87.7957 130.829 88.3674 117.967 85.8664C117.967 81.0075 121.254 73.8619 124.112 67.8596C135.974 70.3606 154.623 69.0744 166.699 70.4321Z" stroke="#FFF3C0" stroke-width="0.714555" stroke-miterlimit="10"/>
<path opacity="0.4" d="M132.117 113.52C135.69 131.455 118.541 149.962 93.8885 154.893C69.1649 159.823 46.2991 149.248 42.7263 131.312C39.1536 113.377 57.5891 98.3713 82.3127 93.4409C106.965 88.5105 128.544 95.5846 132.117 113.52Z" fill="#FFF7D7"/>
<path d="M143.335 112.948C139.262 89.5823 123.899 76.363 84.5271 84.4375C54.7302 90.5827 29.1491 113.091 33.1506 136.457C37.2236 159.823 66.306 167.183 96.3173 161.967C126.4 156.75 147.408 136.314 143.335 112.948ZM92.2443 154.107C68.1638 157.179 45.2266 150.462 42.8686 132.098C40.5105 113.734 61.6614 96.9422 85.6704 93.0836C117.325 88.0103 129.044 98.8715 131.473 117.236C133.903 135.6 116.325 150.963 92.2443 154.107Z" fill="#4D525B"/>
<path d="M72.3095 163.324L57.0895 215.344C57.8041 216.13 59.9477 218.417 63.6634 219.274C67.0218 220.06 69.7371 219.131 70.7375 218.774C75.525 200.267 80.3126 181.831 85.1001 163.324" fill="#4D525B"/>
<path d="M98.7478 103.945C98.7478 103.945 108.037 107.875 110.324 116.092C112.61 124.238 107.251 131.598 113.682 133.599C120.184 135.6 127.473 123.166 125.258 117.236C117.969 98.0141 98.7478 103.945 98.7478 103.945Z" fill="#FFF7D7"/>
<path d="M103.25 143.246C105.026 143.246 106.466 141.806 106.466 140.03C106.466 138.254 105.026 136.815 103.25 136.815C101.474 136.815 100.035 138.254 100.035 140.03C100.035 141.806 101.474 143.246 103.25 143.246Z" fill="#FFF7D7"/>
<path d="M26.9338 177.973C26.9338 177.973 0.495239 175.186 0.495239 166.54C0.495239 157.822 26.9338 177.973 26.9338 177.973Z" fill="#8C93A3"/>
<path d="M26.9328 178.187C26.9328 178.187 6.78236 144.103 13.7135 124.167C20.9305 103.588 26.9328 178.187 26.9328 178.187Z" fill="#8C93A3"/>
<path d="M27.5054 177.759C27.5054 177.759 31.4354 143.531 40.939 149.319C47.1556 153.035 27.5054 177.759 27.5054 177.759Z" fill="#8C93A3"/>
<path d="M202.455 150.262C195.245 165.614 180.896 177.339 164.423 181.242C155.946 183.29 147.504 182.964 139.844 187.297C145.087 181.855 147.542 173.834 146.395 166.411C145.241 158.916 140.352 152.106 133.725 148.569C140.173 148.388 146.227 151.267 149.956 156.62C153.678 161.902 154.446 169.15 152.065 175.151C157.555 169.323 161.551 162.289 161.852 154.281C162.152 146.273 159.423 138.155 154.38 131.935C159.347 131.337 164.247 132.829 167.717 136.413C171.195 140.068 172.904 145.348 172.138 150.316C176.644 139.275 176.776 126.974 172.99 115.663C169.203 104.351 161.188 94.4949 150.913 88.3989C154.356 86.3093 157.494 86.7669 161.243 88.2376C164.992 89.7083 168.016 92.4774 170.7 95.4263C181.38 107.372 186.251 124.172 183.616 139.973C189.281 129.025 190.992 116.7 188.772 104.576C196.594 110.573 200.02 121.203 199.056 131.078C198.091 140.953 193.453 150.067 187.692 158.079C196.44 153.846 198.416 154.858 202.455 150.262Z" fill="#8C93A3"/>
<path d="M70.7368 47.5663L66.2349 40.8492" stroke="#8C93A3" stroke-width="1.42911" stroke-miterlimit="10"/>
<path d="M66.2364 50.4251L58.6617 43.6365" stroke="#8C93A3" stroke-width="1.42911" stroke-miterlimit="10"/>
<path d="M166.609 212.014C174.92 209.546 180.187 202.592 178.372 196.482C176.558 190.372 168.349 187.419 160.038 189.888C151.727 192.356 146.46 199.31 148.275 205.42C150.089 211.53 158.298 214.482 166.609 212.014Z" fill="#E5EAF6"/>
</svg>
